<?xml version="1.0" encoding="UTF-8" standalone="no" ?>
<!DOCTYPE svg PUBLIC "-//W3C//DTD SVG 1.1//EN" "http://www.w3.org/Graphics/SVG/1.1/DTD/svg11.dtd">
<svg xmlns="http://www.w3.org/2000/svg" xmlns:xlink="http://www.w3.org/1999/xlink" version="1.1" width="401.20000000000005" height="401.20000000000005" viewBox="0 0 401.2 401.2" xml:space="preserve">
<desc>Created with Fabric.js 2.4.6</desc>
<defs>
</defs>
<rect x="0" y="0" width="100%" height="100%" fill="#ffffff"></rect>
<g transform="matrix(1 0 0 1 200.28 198.52)" style=""  >
	<g transform="matrix(1.36 0 0 1.36 0 0)" id="Background"  >
<rect style="stroke: none; stroke-width: 1; stroke-dasharray: none; stroke-linecap: butt; stroke-dashoffset: 0; stroke-linejoin: miter; stroke-miterlimit: 4; fill: rgb(41,53,71); fill-rule: evenodd; opacity: 1;"  x="-150" y="-150" rx="0" ry="0" width="300" height="300" />
</g>
	<g transform="matrix(0.15 0 0 0.15 55.71 3.68)"  >
	<image style="stroke: none; stroke-width: 0; stroke-dasharray: none; stroke-linecap: butt; stroke-dashoffset: 0; stroke-linejoin: miter; stroke-miterlimit: 4; fill: rgb(0,0,0); fill-rule: nonzero; opacity: 1;"  xlink:href="https://www.designbeastapp.com/LogoBuilder/PixabayImages/638795774037030425.jpg" x="-313.5" y="-320" width="627" height="640"></image>
</g>
	<g transform="matrix(1.62 0 0 1.67 44.28 11.92)" style=""  >
		<text xml:space="preserve" font-family="'akaPosse'" font-size="46" font-style="normal" font-weight="normal" style="stroke: none; stroke-width: 1; stroke-dasharray: none; stroke-linecap: butt; stroke-dashoffset: 0; stroke-linejoin: miter; stroke-miterlimit: 4; fill: rgb(255,255,255); fill-rule: nonzero; opacity: 1; white-space: pre;" ><tspan x="-23.56" y="14.45" >DA</tspan></text>
</g>
	<g transform="matrix(0.51 0 0 0.51 -11.78 6.39)" style=""  >
	<g transform="matrix(1.34 0 0 1.34 6.34 -29.01)" id="innerlogo"  >
<path style="stroke: none; stroke-width: 1; stroke-dasharray: none; stroke-linecap: butt; stroke-dashoffset: 0; stroke-linejoin: miter; stroke-miterlimit: 4; fill: rgb(141,198,63); fill-rule: nonzero; opacity: 1;"  transform=" translate(-154.65, -104.55)" d="M 135.9 102.8 l 0.7 0.7 c 1.8 2 3.8 3.9 5.9 5.7 h 33.1 v -9.3 h -41.9 C 134.4 100.9 135.1 101.9 135.9 102.8 z" stroke-linecap="round" />
</g>
	<g transform="matrix(1.34 0 0 1.34 4.55 -44.39)" id="innerlogo"  >
<path style="stroke: none; stroke-width: 1; stroke-dasharray: none; stroke-linecap: butt; stroke-dashoffset: 0; stroke-linejoin: miter; stroke-miterlimit: 4; fill: rgb(0,114,188); fill-rule: nonzero; opacity: 1;"  transform=" translate(-153.31, -93.05)" d="M 131.1 88.6 c -0.3 3.1 0.2 6.2 1.5 9.1 h 43 v -9.3 h -44.5 L 131.1 88.6 z" stroke-linecap="round" />
</g>
	<g transform="matrix(1.34 0 0 1.34 13.88 -13.56)" id="innerlogo"  >
<path style="stroke: none; stroke-width: 1; stroke-dasharray: none; stroke-linecap: butt; stroke-dashoffset: 0; stroke-linejoin: miter; stroke-miterlimit: 4; fill: rgb(0,114,188); fill-rule: nonzero; opacity: 1;"  transform=" translate(-160.3, -116.1)" d="M 175.6 111.4 h -30.6 c 2.6 2.2 5.4 4.3 8.3 6.5 l 0 0 l 1.8 1.4 c 0.6 0.5 1.3 1 1.9 1.5 h 18.5 V 111.4 z" stroke-linecap="round" />
</g>
	<g transform="matrix(1.34 0 0 1.34 24.55 -44.39)" id="innerlogo"  >
<path style="stroke: none; stroke-width: 1; stroke-dasharray: none; stroke-linecap: butt; stroke-dashoffset: 0; stroke-linejoin: miter; stroke-miterlimit: 4; fill: rgb(255,255,255); fill-rule: nonzero; opacity: 1;"  transform=" translate(-168.3, -93.05)" d="M 167.2 93.1 c 0 0.8 -0.6 1.4 -1.4 1.4 c -0.8 0 -1.4 -0.6 -1.4 -1.4 c 0 -0.8 0.6 -1.4 1.4 -1.4 C 166.6 91.6 167.2 92.3 167.2 93.1 z M 170.8 91.6 c -0.8 0 -1.4 0.6 -1.4 1.4 c 0 0.8 0.6 1.4 1.4 1.4 c 0.8 0 1.4 -0.6 1.4 -1.4 C 172.2 92.3 171.6 91.6 170.8 91.6 z" stroke-linecap="round" />
</g>
	<g transform="matrix(1.34 0 0 1.34 24.55 -13.7)" id="innerlogo"  >
<path style="stroke: none; stroke-width: 1; stroke-dasharray: none; stroke-linecap: butt; stroke-dashoffset: 0; stroke-linejoin: miter; stroke-miterlimit: 4; fill: rgb(255,255,255); fill-rule: nonzero; opacity: 1;"  transform=" translate(-168.3, -116)" d="M 167.2 116 c 0 0.8 -0.6 1.4 -1.4 1.4 c -0.8 0 -1.4 -0.6 -1.4 -1.4 s 0.6 -1.4 1.4 -1.4 C 166.6 114.6 167.2 115.2 167.2 116 z M 170.8 114.6 c -0.8 0 -1.4 0.6 -1.4 1.4 s 0.6 1.4 1.4 1.4 c 0.8 0 1.4 -0.6 1.4 -1.4 S 171.6 114.6 170.8 114.6 z" stroke-linecap="round" />
</g>
	<g transform="matrix(1.34 0 0 1.34 24.55 -29.08)" id="innerlogo"  >
<path style="stroke: none; stroke-width: 1; stroke-dasharray: none; stroke-linecap: butt; stroke-dashoffset: 0; stroke-linejoin: miter; stroke-miterlimit: 4; fill: rgb(255,255,255); fill-rule: nonzero; opacity: 1;"  transform=" translate(-168.3, -104.5)" d="M 167.2 104.5 c 0 0.8 -0.6 1.4 -1.4 1.4 c -0.8 0 -1.4 -0.6 -1.4 -1.4 c 0 -0.8 0.6 -1.4 1.4 -1.4 C 166.6 103.1 167.2 103.8 167.2 104.5 z M 170.8 103.1 c -0.8 0 -1.4 0.6 -1.4 1.4 c 0 0.8 0.6 1.4 1.4 1.4 c 0.8 0 1.4 -0.6 1.4 -1.4 C 172.2 103.8 171.6 103.1 170.8 103.1 z" stroke-linecap="round" />
</g>
	<g transform="matrix(1.34 0 0 1.34 -8.1 29.17)" id="innerlogo"  >
<path style="stroke: none; stroke-width: 1; stroke-dasharray: none; stroke-linecap: butt; stroke-dashoffset: 0; stroke-linejoin: miter; stroke-miterlimit: 4; fill: rgb(141,198,63); fill-rule: nonzero; opacity: 1;"  transform=" translate(-143.85, -148.05)" d="M 164.1 149.8 l -0.7 -0.7 c -1.8 -2 -3.8 -3.9 -5.9 -5.7 h -36 v 9.3 h 44.7 C 165.6 151.7 164.9 150.7 164.1 149.8 z" stroke-linecap="round" />
</g>
	<g transform="matrix(1.34 0 0 1.34 -15.67 13.79)" id="innerlogo"  >
<path style="stroke: none; stroke-width: 1; stroke-dasharray: none; stroke-linecap: butt; stroke-dashoffset: 0; stroke-linejoin: miter; stroke-miterlimit: 4; fill: rgb(0,114,188); fill-rule: nonzero; opacity: 1;"  transform=" translate(-138.2, -136.55)" d="M 146.6 134.7 L 146.6 134.7 l -1.8 -1.3 c -0.6 -0.5 -1.3 -1 -1.9 -1.5 h -21.4 v 9.3 h 33.4 C 152.3 139 149.5 136.9 146.6 134.7 z" stroke-linecap="round" />
</g>
	<g transform="matrix(1.34 0 0 1.34 -6.23 44.55)" id="innerlogo"  >
<path style="stroke: none; stroke-width: 1; stroke-dasharray: none; stroke-linecap: butt; stroke-dashoffset: 0; stroke-linejoin: miter; stroke-miterlimit: 4; fill: rgb(0,114,188); fill-rule: nonzero; opacity: 1;"  transform=" translate(-145.24, -159.55)" d="M 168.9 164 c 0.3 -3.1 -0.2 -6.2 -1.5 -9.1 h -45.9 v 9.3 h 47.3 L 168.9 164 z" stroke-linecap="round" />
</g>
	<g transform="matrix(1.34 0 0 1.34 0.08 0.04)" id="innerlogo"  >
<path style="stroke: none; stroke-width: 1; stroke-dasharray: none; stroke-linecap: butt; stroke-dashoffset: 0; stroke-linejoin: miter; stroke-miterlimit: 4; fill: rgb(255,255,255); fill-rule: nonzero; opacity: 1;"  transform=" translate(-149.95, -126.2)" d="M 128.9 89 c -0.4 5.3 1.4 10.8 5.4 15.2 l 0 0 c 0 0 0 0 0 0 c 5.5 6.1 12.4 11.3 19.5 16.7 l 0 0 c 7.5 5.6 14.9 11.6 21.3 18.7 c 6.1 6.7 6.2 16.5 -0.2 22.1 l -0.3 0.2 l 0 0 c 0 0 0 0 0 0 l -0.1 0.1 c 0 0 0 0 0 0 c -1.1 0.9 -2.3 1.6 -3.5 2.1 c 0.6 -5.5 -1.2 -11.3 -5.4 -15.9 l 0 0 c 0 0 0 0 0 0 c -5.5 -6.1 -12.4 -11.3 -19.5 -16.7 l 0 0 c -7.5 -5.6 -14.9 -11.6 -21.3 -18.7 c -6.1 -6.7 -6.2 -16.5 0.2 -22.1 l 0.3 -0.2 l 0 0 c 0 0 0 0 0 0 l 0.1 -0.1 c 0 0 0 0 0 0 c 1.1 -0.9 2.3 -1.6 3.5 -2.1 C 128.9 88.4 128.9 88.8 128.9 89 z" stroke-linecap="round" />
</g>
</g>
</g>
</svg>